<?xml version="1.0" encoding="UTF-8" standalone="no"?>
<!-- Created with Inkscape (http://www.inkscape.org/) -->

<svg
   xmlns:dc="http://purl.org/dc/elements/1.1/"
   xmlns:cc="http://creativecommons.org/ns#"
   xmlns:rdf="http://www.w3.org/1999/02/22-rdf-syntax-ns#"
   xmlns:svg="http://www.w3.org/2000/svg"
   xmlns="http://www.w3.org/2000/svg"
   xmlns:sodipodi="http://sodipodi.sourceforge.net/DTD/sodipodi-0.dtd"
   xmlns:inkscape="http://www.inkscape.org/namespaces/inkscape"
   width="754.81915"
   height="229.67451"
   id="svg3752"
   version="1.1"
   inkscape:version="0.91 r13725"
   viewBox="0 0 754.81915 229.67451"
   sodipodi:docname="eldar_logo.svg"
   inkscape:export-filename="/home/agude/Projects/eldar.vim/eldar_logo.svg.png"
   inkscape:export-xdpi="100"
   inkscape:export-ydpi="100">
  <title
     id="title4718">Eldar Logo</title>
  <defs
     id="defs3754" />
  <sodipodi:namedview
     id="base"
     pagecolor="#ffffff"
     bordercolor="#666666"
     borderopacity="1.0"
     inkscape:pageopacity="0.0"
     inkscape:pageshadow="2"
     inkscape:zoom="1.0606602"
     inkscape:cx="443.16409"
     inkscape:cy="11.804248"
     inkscape:document-units="px"
     inkscape:current-layer="layer1"
     showgrid="false"
     fit-margin-top="0"
     fit-margin-left="0"
     fit-margin-right="0"
     fit-margin-bottom="0"
     inkscape:window-width="1615"
     inkscape:window-height="1026"
     inkscape:window-x="1745"
     inkscape:window-y="24"
     inkscape:window-maximized="1" />
  <metadata
     id="metadata3757">
    <rdf:RDF>
      <cc:Work
         rdf:about="">
        <dc:format>image/svg+xml</dc:format>
        <dc:type
           rdf:resource="http://purl.org/dc/dcmitype/StillImage" />
        <dc:title>Eldar Logo</dc:title>
        <cc:license
           rdf:resource="http://creativecommons.org/publicdomain/zero/1.0/" />
        <dc:date>2016-09-24</dc:date>
        <dc:creator>
          <cc:Agent>
            <dc:title>Alexander Gude</dc:title>
          </cc:Agent>
        </dc:creator>
      </cc:Work>
      <cc:License
         rdf:about="http://creativecommons.org/publicdomain/zero/1.0/">
        <cc:permits
           rdf:resource="http://creativecommons.org/ns#Reproduction" />
        <cc:permits
           rdf:resource="http://creativecommons.org/ns#Distribution" />
        <cc:permits
           rdf:resource="http://creativecommons.org/ns#DerivativeWorks" />
      </cc:License>
    </rdf:RDF>
  </metadata>
  <g
     id="layer1"
     inkscape:label="Layer 1"
     inkscape:groupmode="layer"
     transform="translate(26.684608,17.097137)">
    <rect
       style="color:#000000;display:inline;overflow:visible;visibility:visible;opacity:1;fill:#1a1a1a;fill-opacity:1;fill-rule:nonzero;stroke:#1a1a1a;stroke-width:9.58928871;stroke-miterlimit:4;stroke-dasharray:none;marker:none;enable-background:accumulate"
       id="rect3760"
       width="745.22986"
       height="220.08522"
       x="-21.889963"
       y="-12.302493" />
    <path
       inkscape:connector-curvature="0"
       id="path4145"
       style="font-style:normal;font-variant:normal;font-weight:300;font-stretch:normal;font-size:125px;line-height:125%;font-family:Ubuntu;-inkscape-font-specification:'Ubuntu Light';letter-spacing:0px;word-spacing:0px;fill:#e6e6e6;fill-opacity:1;stroke:none;stroke-width:1px;stroke-linecap:butt;stroke-linejoin:miter;stroke-opacity:1"
       d="m 214.70642,118.28426 0,-86.624996 50,0 0,7.375 -41.5,0 0,30.125 37,0 0,7.25 -37,0 0,34.499996 44.75,0 0,7.375 -53.25,0 z" />
    <path
       inkscape:connector-curvature="0"
       id="path4147"
       style="font-style:normal;font-variant:normal;font-weight:300;font-stretch:normal;font-size:125px;line-height:125%;font-family:Ubuntu;-inkscape-font-specification:'Ubuntu Light';letter-spacing:0px;word-spacing:0px;fill:#e6e6e6;fill-opacity:1;stroke:none;stroke-width:1px;stroke-linecap:butt;stroke-linejoin:miter;stroke-opacity:1"
       d="m 299.91736,119.40926 q -4.125,-0.125 -7.25,-1.125 -3,-0.875 -5.125,-2.75 -2,-2 -3.125,-5 -1,-3.125 -1,-7.75 l 0,-79.999996 8.125,-1.5 0,81.249996 q 0,3 0.5,4.875 0.625,1.75 1.75,2.875 1.125,1 2.875,1.5 1.875,0.5 4.375,0.875 l -1.125,6.75 z" />
    <path
       inkscape:connector-curvature="0"
       id="path4149"
       style="font-style:normal;font-variant:normal;font-weight:300;font-stretch:normal;font-size:125px;line-height:125%;font-family:Ubuntu;-inkscape-font-specification:'Ubuntu Light';letter-spacing:0px;word-spacing:0px;fill:#e6e6e6;fill-opacity:1;stroke:none;stroke-width:1px;stroke-linecap:butt;stroke-linejoin:miter;stroke-opacity:1"
       d="m 366.89978,116.28426 q -3.625,1.25 -9.25,2.375 -5.625,1.125 -14.25,1.125 -7.125,0 -13,-2.25 -5.75,-2.375 -10,-6.75 -4.125,-4.375 -6.5,-10.625 -2.25,-6.249996 -2.25,-14.124996 0,-7.375 1.875,-13.5 2,-6.25 5.75,-10.75 3.75,-4.5 9.125,-7 5.5,-2.5 12.5,-2.5 6.375,0 11,1.875 4.75,1.75 6.875,3.375 l 0,-34.75 8.125,-1.5 0,94.999996 z m -8.125,-50.874996 q -1.125,-0.875 -2.875,-1.875 -1.625,-1 -3.875,-1.875 -2.25,-0.875 -4.875,-1.375 -2.625,-0.625 -5.5,-0.625 -6,0 -10.125,2.125 -4,2.125 -6.5,5.75 -2.5,3.5 -3.625,8.375 -1.125,4.75 -1.125,10.125 0,12.75 6.375,19.624996 6.375,6.75 16.875,6.75 6,0 9.625,-0.5 3.75,-0.625 5.625,-1.25 l 0,-45.249996 z" />
    <path
       inkscape:connector-curvature="0"
       id="path4151"
       style="font-style:normal;font-variant:normal;font-weight:300;font-stretch:normal;font-size:125px;line-height:125%;font-family:Ubuntu;-inkscape-font-specification:'Ubuntu Light';letter-spacing:0px;word-spacing:0px;fill:#e6e6e6;fill-opacity:1;stroke:none;stroke-width:1px;stroke-linecap:butt;stroke-linejoin:miter;stroke-opacity:1"
       d="m 408.89783,112.40926 q 4.75,0 8.25,-0.25 3.625,-0.375 6.125,-0.875 l 0,-22.749996 q -1.375,-0.625 -4.375,-1.25 -3,-0.75 -8.25,-0.75 -3,0 -6.25,0.5 -3.25,0.375 -6,1.875 -2.75,1.375 -4.5,3.875 -1.75,2.5 -1.75,6.625 0,3.624996 1.125,6.124996 1.25,2.5 3.375,4 2.25,1.5 5.25,2.25 3.125,0.625 7,0.625 z m -0.75,-60.249996 q 6.375,0 10.75,1.875 4.5,1.75 7.25,5 2.75,3.125 4,7.5 1.25,4.375 1.25,9.5 l 0,40.749996 q -1.25,0.375 -3.625,0.875 -2.375,0.375 -5.5,0.875 -3.125,0.5 -7,0.75 -3.75,0.375 -7.75,0.375 -5.125,0 -9.5,-1.125 -4.25,-1.125 -7.5,-3.5 -3.125,-2.5 -5,-6.25 -1.75,-3.875 -1.75,-9.374996 0,-5.25 2,-9 2,-3.75 5.625,-6.125 3.625,-2.5 8.625,-3.625 5,-1.125 10.875,-1.125 1.75,0 3.625,0.25 2,0.125 3.75,0.5 1.875,0.25 3.125,0.625 1.375,0.25 1.875,0.5 l 0,-4 q 0,-3.375 -0.5,-6.5 -0.5,-3.25 -2.25,-5.75 -1.625,-2.625 -4.75,-4.125 -3,-1.625 -8,-1.625 -7.125,0 -10.625,1 -3.5,1 -5.125,1.625 l -1.125,-7.125 q 2.125,-1 6.5,-1.875 4.5,-0.875 10.75,-0.875 z" />
    <path
       inkscape:connector-curvature="0"
       id="path4153"
       style="font-style:normal;font-variant:normal;font-weight:300;font-stretch:normal;font-size:125px;line-height:125%;font-family:Ubuntu;-inkscape-font-specification:'Ubuntu Light';letter-spacing:0px;word-spacing:0px;fill:#e6e6e6;fill-opacity:1;stroke:none;stroke-width:1px;stroke-linecap:butt;stroke-linejoin:miter;stroke-opacity:1"
       d="m 474.24353,52.409264 q 4,0 7.5,0.625 3.625,0.625 5,1.25 l -1.625,7 q -1,-0.5 -4.125,-1 -3,-0.625 -8,-0.625 -5.25,0 -8.5,0.75 -3.125,0.75 -4.125,1.25 l 0,56.624996 -8.125,0 0,-61.624996 q 3.125,-1.375 8.625,-2.75 5.5,-1.5 13.375,-1.5 z" />
    <g
       id="g4649"
       transform="translate(-60.929539,-17.913372)">
      <rect
         y="162.31035"
         x="85.058403"
         height="10"
         width="100"
         id="rect3766-3"
         style="color:#000000;display:inline;overflow:visible;visibility:visible;opacity:1;fill:#ef2929;fill-opacity:1;fill-rule:nonzero;stroke:none;stroke-width:4.39519405;stroke-miterlimit:4;stroke-dasharray:none;marker:none;enable-background:accumulate" />
      <rect
         y="162.31035"
         x="195.69685"
         height="10"
         width="100"
         id="rect3766-3-6"
         style="color:#000000;display:inline;overflow:visible;visibility:visible;opacity:1;fill:#fce94f;fill-opacity:1;fill-rule:nonzero;stroke:none;stroke-width:4.39519405;stroke-miterlimit:4;stroke-dasharray:none;marker:none;enable-background:accumulate" />
      <rect
         y="162.31035"
         x="306.3353"
         height="10"
         width="100"
         id="rect3766-3-6-7"
         style="color:#000000;display:inline;overflow:visible;visibility:visible;opacity:1;fill:#8ae234;fill-opacity:1;fill-rule:nonzero;stroke:none;stroke-width:4.39519405;stroke-miterlimit:4;stroke-dasharray:none;marker:none;enable-background:accumulate" />
      <rect
         y="162.31035"
         x="416.97375"
         height="10"
         width="100"
         id="rect3766-3-6-7-5"
         style="color:#000000;display:inline;overflow:visible;visibility:visible;opacity:1;fill:#34e2e2;fill-opacity:1;fill-rule:nonzero;stroke:none;stroke-width:4.39519405;stroke-miterlimit:4;stroke-dasharray:none;marker:none;enable-background:accumulate" />
      <rect
         y="162.31035"
         x="527.61218"
         height="10"
         width="100"
         id="rect3766-3-6-7-5-3"
         style="color:#000000;display:inline;overflow:visible;visibility:visible;opacity:1;fill:#729fcf;fill-opacity:1;fill-rule:nonzero;stroke:none;stroke-width:4.39519405;stroke-miterlimit:4;stroke-dasharray:none;marker:none;enable-background:accumulate" />
      <rect
         y="162.31035"
         x="638.25061"
         height="10"
         width="100"
         id="rect3766-3-6-7-5-5"
         style="color:#000000;display:inline;overflow:visible;visibility:visible;opacity:1;fill:#ad7fa8;fill-opacity:1;fill-rule:nonzero;stroke:none;stroke-width:4.39519405;stroke-miterlimit:4;stroke-dasharray:none;marker:none;enable-background:accumulate" />
    </g>
  </g>
</svg>
